<?xml version="1.0" standalone="no"?>
<!DOCTYPE svg PUBLIC "-//W3C//DTD SVG 20010904//EN"
 "http://www.w3.org/TR/2001/REC-SVG-20010904/DTD/svg10.dtd">
<svg version="1.0" xmlns="http://www.w3.org/2000/svg"
 width="815.000000pt" height="588.000000pt" viewBox="0 0 815.000000 588.000000"
 preserveAspectRatio="xMidYMid meet">
<metadata>
Created by potrace 1.15, written by Peter Selinger 2001-2017
</metadata>
<g transform="translate(0.000000,588.000000) scale(0.100000,-0.100000)"
fill="#000000" stroke="none">
<path d="M1020 4120 c0 -77 182 -332 358 -502 103 -99 232 -208 247 -208 2 0
32 -18 66 -40 33 -21 71 -42 82 -45 12 -4 56 -19 97 -35 41 -16 91 -32 111
-35 21 -3 54 -17 74 -31 49 -33 69 -28 73 16 12 119 -31 176 -191 255 -134 66
-211 108 -215 117 -2 3 -37 26 -78 49 -41 23 -74 46 -74 51 0 4 -6 8 -12 8 -7
0 -24 10 -38 21 -14 11 -43 32 -65 46 -64 41 -175 127 -175 135 0 5 -6 8 -12
8 -7 0 -58 43 -113 95 -118 113 -135 125 -135 95z"/>
<path d="M6930 4053 c-64 -65 -192 -171 -300 -248 -30 -22 -64 -48 -74 -57
-11 -10 -26 -18 -33 -18 -7 0 -13 -4 -13 -8 0 -4 -26 -23 -57 -42 -32 -19 -71
-44 -86 -57 -16 -13 -32 -23 -37 -23 -5 0 -28 -13 -52 -29 -24 -16 -90 -53
-148 -83 -119 -61 -178 -97 -202 -124 -35 -41 -53 -179 -23 -190 8 -3 26 3 40
14 14 11 45 23 68 27 23 4 47 11 52 15 6 4 42 17 80 29 39 12 86 31 105 41 19
11 53 28 75 39 22 10 65 37 95 60 30 22 69 51 85 63 34 25 244 233 293 291 93
107 225 338 205 358 -5 5 -37 -21 -73 -58z"/>
<path d="M3304 3932 c-43 -39 -256 -219 -283 -239 -13 -9 -17 -37 -21 -140
l-5 -128 -129 -3 c-71 -1 -195 4 -275 13 -80 9 -182 20 -226 25 -70 7 -143 27
-207 55 -12 5 -20 2 -24 -10 -8 -19 48 -74 131 -129 83 -54 260 -120 340 -125
11 0 102 -4 203 -7 100 -4 182 -10 182 -15 0 -10 -10 -11 -195 -9 -137 1 -271
11 -409 29 -47 7 -83 19 -118 40 -27 17 -53 31 -58 31 -20 0 -20 -22 2 -53 69
-97 184 -181 283 -206 95 -24 357 -71 428 -77 l78 -7 -3 -31 -3 -31 -95 -3
c-137 -4 -385 15 -503 38 -131 27 -132 27 -167 57 -27 22 -31 23 -36 8 -4 -9
-3 -20 3 -24 5 -3 20 -22 33 -41 38 -56 72 -90 125 -124 78 -49 98 -56 360
-117 28 -6 102 -14 165 -18 111 -6 115 -7 118 -30 2 -13 0 -27 -5 -32 -6 -6
-79 -5 -179 0 -187 10 -294 32 -435 87 -48 19 -92 34 -98 34 -21 0 8 -42 73
-104 101 -98 257 -154 481 -176 72 -6 137 -13 145 -14 8 0 15 -10 15 -21 0
-19 -7 -20 -95 -20 -52 0 -116 4 -142 9 -39 7 -48 6 -48 -6 0 -8 8 -22 18 -31
21 -20 237 -107 263 -107 12 0 19 -11 24 -40 10 -59 75 -225 117 -300 55 -96
145 -207 218 -268 36 -30 75 -63 88 -73 12 -11 25 -19 29 -19 3 0 30 -16 59
-35 29 -19 57 -35 63 -35 6 0 45 -14 87 -30 117 -47 201 -61 349 -59 144 2
229 18 355 70 132 55 218 109 338 214 53 47 212 275 212 305 0 4 13 36 30 71
16 34 32 82 36 105 3 24 12 49 20 55 8 6 14 8 14 4 0 -4 7 -2 15 5 8 7 15 9
15 5 0 -4 7 -2 15 5 8 7 15 9 15 5 0 -4 6 -2 13 4 8 6 17 8 20 4 4 -3 7 -1 7
5 0 7 8 12 17 12 22 0 155 68 170 88 7 8 10 19 7 23 -7 12 -44 12 -44 0 0 -4
-11 -6 -25 -3 -16 3 -25 0 -25 -8 0 -8 -12 -11 -35 -8 -19 2 -35 0 -35 -4 0
-4 -30 -8 -66 -8 -62 0 -65 1 -62 23 2 13 10 22 20 22 9 0 20 4 24 8 4 4 23 7
43 7 47 0 194 26 295 51 85 22 128 41 200 89 44 30 126 115 126 131 0 17 -23
20 -53 6 -59 -27 -196 -77 -212 -77 -8 0 -15 -3 -15 -8 0 -4 -20 -6 -45 -4
-25 2 -45 0 -45 -4 0 -5 -22 -7 -50 -6 -27 2 -50 0 -50 -5 0 -5 -54 -10 -121
-12 l-120 -3 3 29 c2 18 9 28 20 28 9 0 20 4 24 8 4 4 17 7 28 7 33 -1 294 39
364 55 34 8 86 26 116 40 29 14 57 25 62 25 5 0 34 24 65 53 133 125 140 173
18 117 -63 -29 -90 -35 -213 -46 -78 -7 -219 -16 -313 -20 l-173 -7 0 30 c0
17 6 35 13 40 6 6 71 16 142 23 177 16 354 59 450 107 74 38 205 178 190 203
-8 13 -32 13 -37 0 -5 -16 -135 -56 -238 -73 -52 -9 -191 -19 -309 -23 -180
-6 -213 -5 -209 7 4 11 45 15 194 20 162 5 204 10 291 33 56 15 121 38 145 51
24 13 56 32 72 41 42 24 156 114 156 124 0 21 -26 20 -118 -4 -138 -36 -284
-56 -401 -56 -56 0 -103 -4 -106 -10 -4 -6 -55 -10 -121 -10 l-114 0 0 140 0
140 -71 68 c-39 37 -76 69 -82 71 -6 2 -25 18 -42 35 -17 17 -58 55 -92 84
l-62 52 -668 0 -668 -1 -41 -37z m1382 -30 c18 -15 91 -76 163 -137 l130 -110
-2 -690 c-2 -680 -3 -691 -25 -770 -32 -116 -121 -286 -195 -375 -487 -581
-1385 -425 -1653 289 -62 163 -64 197 -64 903 l0 637 155 131 c85 72 157 135
160 140 4 6 243 10 653 10 l647 0 31 -28z"/>
<path d="M3975 3530 c-3 -5 -16 -10 -28 -10 -25 -1 -54 -23 -80 -60 -12 -17
-17 -44 -17 -90 0 -66 11 -102 24 -81 15 23 27 9 24 -26 -3 -33 -7 -39 -33
-43 -16 -3 -46 -13 -65 -24 -42 -22 -103 -83 -95 -95 2 -5 -6 -33 -19 -62 -14
-30 -30 -83 -37 -117 -13 -63 -13 -64 20 -128 18 -35 38 -64 43 -64 7 0 8 -14
5 -36 -6 -33 -3 -37 22 -47 26 -10 27 -12 24 -76 -8 -177 -11 -202 -27 -225
-30 -46 -10 -116 32 -116 22 0 13 -81 -17 -144 -34 -74 -49 -197 -25 -217 24
-20 18 -127 -12 -192 -19 -43 -23 -61 -15 -75 12 -23 65 -33 87 -17 21 15 33
81 34 180 0 73 2 81 26 100 24 19 27 30 31 101 4 56 12 94 30 131 16 33 22 59
18 73 -5 15 1 32 20 56 21 27 26 44 23 76 -2 27 1 43 10 45 8 3 12 -8 12 -37
0 -53 12 -75 48 -88 35 -12 56 -73 47 -135 -11 -77 -12 -175 -1 -189 6 -8 21
-18 34 -22 26 -8 28 -31 11 -121 -10 -53 -9 -60 7 -72 10 -7 27 -13 39 -13 12
0 32 -11 45 -25 13 -14 38 -27 56 -31 32 -6 74 9 74 26 0 6 -29 38 -65 73 -59
57 -65 67 -65 103 0 22 9 57 20 79 11 21 16 43 11 49 -4 6 -9 60 -10 120 -1
68 -7 121 -16 143 -20 48 -19 63 5 63 25 0 27 34 4 110 -13 44 -13 54 -2 61
11 8 11 11 -1 18 -21 13 -2 33 25 27 21 -6 24 -3 24 19 0 14 -7 28 -15 31 -19
8 -19 28 -1 43 11 10 22 8 48 -5 18 -10 35 -18 38 -17 3 0 15 4 28 8 16 5 22
2 22 -9 0 -9 7 -16 15 -16 8 0 15 -4 15 -10 0 -5 9 -10 20 -10 20 0 27 -3 87
-34 17 -9 34 -16 39 -16 8 0 -66 58 -98 76 -38 22 -42 32 -24 58 22 35 21 37
-21 31 -42 -6 -68 10 -92 56 -7 15 -24 32 -37 37 -20 10 -22 16 -17 47 4 24 2
35 -7 35 -7 0 -10 7 -6 15 3 8 -1 33 -9 56 -8 23 -15 45 -15 50 0 5 25 9 55 9
94 0 134 32 113 92 -20 59 -76 137 -102 144 -29 7 -96 76 -96 98 0 19 -48 53
-80 57 -17 3 -27 13 -34 34 -34 112 -107 204 -131 165z"/>
<path d="M1155 3673 c8 -33 109 -206 130 -223 8 -7 15 -18 15 -24 0 -6 18 -33
40 -60 22 -26 40 -51 40 -55 0 -6 144 -154 199 -205 53 -48 218 -109 381 -141
47 -9 99 -23 117 -32 55 -26 65 -2 38 90 -21 72 -49 101 -125 127 -123 43
-240 102 -357 179 -65 43 -124 85 -132 94 -7 10 -18 17 -23 17 -11 0 -230 184
-272 229 -38 40 -61 41 -51 4z"/>
<path d="M6785 3613 c-48 -43 -108 -97 -132 -120 -25 -24 -51 -43 -59 -43 -8
0 -14 -4 -14 -10 0 -9 -88 -74 -154 -114 -17 -10 -44 -29 -60 -43 -17 -14 -86
-52 -155 -85 -163 -77 -160 -76 -202 -82 -47 -8 -73 -38 -98 -113 -31 -92 -25
-127 16 -103 10 5 101 30 203 56 164 40 194 51 267 95 89 54 179 145 272 274
28 39 63 88 79 110 57 78 143 238 134 247 -6 6 -43 -21 -97 -69z"/>
<path d="M1174 3325 c-4 -9 -2 -21 4 -28 5 -6 19 -39 31 -72 12 -33 38 -89 58
-125 43 -78 160 -228 205 -263 18 -14 42 -34 53 -44 75 -71 269 -131 512 -158
82 -9 170 -21 196 -27 75 -16 77 -4 18 104 -28 52 -59 102 -70 112 -13 12 -79
30 -188 52 -250 50 -386 108 -562 239 -54 41 -127 106 -162 144 -67 76 -87 89
-95 66z"/>
<path d="M6828 3312 c-10 -2 -18 -8 -18 -13 0 -16 -184 -196 -208 -203 -12 -4
-22 -11 -22 -16 0 -4 -28 -26 -62 -48 -158 -99 -361 -173 -530 -192 -128 -15
-147 -26 -192 -109 -11 -22 -33 -60 -48 -85 -35 -56 -29 -81 16 -71 32 6 259
38 398 55 82 10 274 84 314 121 11 10 23 19 27 19 7 0 115 108 155 155 60 69
196 339 190 374 -2 10 -10 15 -20 13z"/>
<path d="M1735 2600 c-8 -12 12 -40 28 -40 6 0 25 -13 42 -29 61 -59 254 -161
340 -179 62 -14 270 -32 364 -32 52 0 71 3 71 13 0 8 -29 39 -64 71 -36 32
-78 70 -94 86 -26 24 -40 29 -113 35 -162 13 -315 34 -432 59 -136 30 -134 29
-142 16z"/>
<path d="M6195 2568 c-27 -5 -84 -16 -125 -25 -142 -29 -305 -53 -366 -53 -68
0 -74 -4 -192 -108 -101 -91 -96 -96 82 -89 132 5 286 27 331 46 11 5 43 17
70 26 28 10 57 24 66 32 10 8 40 29 67 46 119 75 162 108 162 122 0 17 -19 18
-95 3z"/>
<path d="M2270 2276 c0 -9 4 -16 8 -16 5 0 17 -8 28 -19 19 -17 105 -61 188
-95 52 -21 289 -23 284 -2 -2 7 -32 38 -69 68 l-65 56 -165 5 c-90 2 -174 8
-186 12 -18 6 -23 3 -23 -9z"/>
<path d="M5655 2248 c-23 -5 -89 -7 -153 -3 -96 5 -113 4 -118 -10 -3 -8 -10
-12 -15 -9 -5 3 -9 -2 -9 -11 0 -9 -4 -14 -9 -10 -5 3 -16 -4 -24 -15 -7 -11
-17 -17 -20 -14 -4 4 -9 -1 -13 -10 -3 -9 -9 -14 -14 -11 -12 8 -53 -42 -45
-56 11 -17 226 -5 284 15 67 25 204 97 217 115 24 32 -4 38 -81 19z"/>
<path d="M3052 1123 c-19 -35 -25 -83 -10 -83 7 -1 49 -7 93 -15 111 -20 136
-19 142 5 7 27 17 25 37 -5 22 -33 33 -32 41 6 4 17 14 33 22 36 20 8 47 -27
33 -41 -14 -14 -13 -39 2 -34 7 3 16 19 20 36 7 27 13 32 40 32 26 0 29 -2 18
-15 -7 -8 -10 -21 -7 -29 3 -7 0 -19 -6 -25 -8 -8 -7 -11 5 -11 9 0 18 6 21
13 3 9 9 7 24 -5 24 -22 33 -23 33 -3 0 8 9 15 20 15 12 0 17 -5 14 -14 -6
-15 31 -22 139 -25 62 -2 67 -1 67 18 0 23 -10 27 -27 10 -7 -7 -19 -9 -28 -5
-13 5 -16 14 -11 40 l7 34 -63 6 c-35 3 -123 12 -196 19 l-133 13 -5 -23 c-8
-29 -17 -29 -34 1 -11 21 -26 27 -104 41 -50 8 -103 18 -118 21 -19 4 -29 0
-36 -13z"/>
<path d="M4835 1119 c-77 -11 -88 -16 -81 -34 9 -24 -14 -29 -42 -8 -23 15
-37 17 -92 12 -178 -19 -394 -31 -565 -33 -188 -1 -190 -1 -190 -23 0 -12 -4
-25 -8 -29 -4 -4 -7 -15 -7 -25 0 -28 116 -37 142 -11 6 6 29 12 50 12 25 0
37 -4 35 -12 -3 -17 125 -16 131 1 5 14 42 15 42 1 0 -16 27 -12 34 6 3 8 10
12 16 9 6 -4 8 -11 5 -16 -4 -5 -1 -9 5 -9 6 0 13 7 16 15 7 18 51 20 56 3 4
-10 33 -10 138 0 74 6 138 16 143 21 5 5 16 7 23 4 9 -3 14 2 14 14 0 31 11
34 40 13 35 -25 62 -25 77 -1 13 20 50 22 46 2 -3 -12 10 -15 21 -4 4 4 22 6
41 5 18 -2 36 2 40 7 3 6 11 9 16 6 5 -4 9 4 9 16 0 18 -3 20 -12 11 -7 -7
-22 -12 -35 -12 -20 0 -23 5 -23 35 0 22 -5 35 -12 34 -7 -1 -40 -5 -73 -10z"/>
</g>
</svg>
